# xmcd CD database file
#
# Track frame offsets:
#	150
#	20702
#	39535
#	49370
#	63120
#	79577
#	100700
#	118357
#	132360
#	145345
#	158640
#	169692
#	191965
#
# Disc length: 2773 seconds
#
# Revision: 0
# Processed by: cddbd v1.5.2PL0 Copyright (c) Steve Scherf et al.
# Submitted via: CDex 1.51
#
DISCID=b60ad30d
DTITLE=Various Artist - Hillbilly Moon Volume 1
DYEAR=1994
DGENRE=Country
TTITLE0=She Left Me (Just Like That)
TTITLE1=Angelina
TTITLE2=Old Love Songs
TTITLE3=Blue Becomes You
TTITLE4=Waiting For the Hangman
TTITLE5=Brakeman
TTITLE6=Love and Hate
TTITLE7=Howling at the Moon
TTITLE8=Low Rent Part of Town
TTITLE9=Speed of Sound
TTITLE10=Some Things Never Change
TTITLE11=Footsteps in the Hall
TTITLE12=Lonely
EXTD=YEAR: 1994
EXTT0=
EXTT1=
EXTT2=
EXTT3=
EXTT4=
EXTT5=
EXTT6=
EXTT7=
EXTT8=
EXTT9=
EXTT10=
EXTT11=
EXTT12=
PLAYORDER=
